# xmcd CD database file
#
# Track frame offsets:
#	170
#	18187
#	30627
#	50243
#	65559
#	84348
#	91532
#	106670
#	122395
#	147392
#	153936
#	168067
#	176372
#	191973
#	210283
#	234294
#
# Disc length: 3374 seconds
#
# Revision: 0
# Processed by: cddbd v1.5.2PL0 Copyright (c) Steve Scherf et al.
# Submitted via: CDex 1.51
#
DISCID=bb0d2c10
DTITLE=Jerry Rojas- Peter A. Schmid - Songbook
DYEAR=2006
DGENRE=Jazz
TTITLE0=Penguins
TTITLE1=Southern cross
TTITLE2=Magnolia
TTITLE3=Norway
TTITLE4=Taragoriental
TTITLE5=No licks
TTITLE6=Ursina
TTITLE7=Paralax
TTITLE8=Sad eyes
TTITLE9=Taragotic VII
TTITLE10=Tarablues
TTITLE11=Unexpected leaving
TTITLE12=Steppenwolf
TTITLE13=As you really are
TTITLE14=Taragotic III
TTITLE15=Ball ade
EXTD=YEAR: 2006
EXTT0=
EXTT1=
EXTT2=
EXTT3=
EXTT4=
EXTT5=
EXTT6=
EXTT7=
EXTT8=
EXTT9=
EXTT10=
EXTT11=
EXTT12=
EXTT13=
EXTT14=
EXTT15=
PLAYORDER=
